<svg id="Layer_1" enable-background="new 0 0 504.711 504.711" height="512" viewBox="0 0 504.711 504.711" width="512" xmlns="http://www.w3.org/2000/svg"><path d="m310.94 213.514v-104.196c0-8.836-7.163-16-16-16h-140.049v-51.586c0-14.117-17.038-21.321-27.163-11.462l-122.893 119.684c-6.454 6.285-6.439 16.654 0 22.925l122.893 119.685c10.112 9.847 27.163 2.669 27.163-11.462v-51.586h140.049c8.837-.002 16-7.165 16-16.002z" fill="#e88793"/><path d="m499.876 331.833-122.892-119.685c-10.112-9.847-27.163-2.669-27.163 11.462v51.586h-140.049c-8.837 0-16 7.164-16 16v104.196c0 8.836 7.163 16 16 16h140.049v51.586c0 14.161 17.098 21.263 27.163 11.462l122.893-119.684c6.454-6.284 6.439-16.653-.001-22.923z" fill="#9bd65e"/><path d="m376.984 474.441 122.893-119.684c6.454-6.285 6.439-16.654 0-22.925l-15.447-15.043c-38.168 5.162-75.941 16.231-100.162 38.308-38.523 35.114-124.073 32.667-190.496 24.738v15.558c0 8.836 7.163 16 16 16h140.049v51.586c0 14.118 17.038 21.321 27.163 11.462z" fill="#91c656"/><path d="m173.263 149.352c34.795-23.187 68.925-41.608 99.612-56.033h-117.984v-51.587c0-14.117-17.038-21.321-27.163-11.462l-121.592 118.418c34.699 24.612 94.852 48.827 167.127.664z" fill="#fc93a0"/></svg>