<svg id="flat" height="512" viewBox="0 0 512 512" width="512" xmlns="http://www.w3.org/2000/svg"><path d="m176 400v-176l-80.00058-.00031a15.99969 15.99969 0 0 0 -15.9997-15.99969 15.99969 15.99969 0 0 0 -15.99972 16.00028l-.00059 16a15.99968 15.99968 0 0 0 -15.99969-16.00028 15.9997 15.9997 0 0 0 -15.99972 15.99969v80.90414a88 88 0 0 0 39.18638 73.22043l8.81362 5.87574z" fill="#f5c99d"/><path d="m48.11163 216.00026a23.86261 23.86261 0 0 1 8.72773 1.694 24.07088 24.07088 0 0 1 9.43619-13.39968 23.28767 23.28767 0 0 1 9.4816-3.92851 24.03507 24.03507 0 0 1 28.24237 23.63349v48.00044h-16v-47.6875a8.204 8.204 0 0 0 -8.032-8.31244 7.95936 7.95936 0 0 0 -5.99123 2.73428 8.36952 8.36952 0 0 0 -1.97629 5.54182l-.00239 71.72189-16-.001.002-55.71452a8.18884 8.18884 0 0 0 -7.45225-8.26417 8.0079 8.0079 0 0 0 -8.54736 7.98115v80.9043a79.839 79.839 0 0 0 35.62451 66.564l2.157 1.43811a8 8 0 0 1 2.21849 11.09416 8 8 0 0 1 -11.09409 2.21823l-2.15691-1.43804a95.80692 95.80692 0 0 1 -42.749-79.87646v-80.33142c0-13.26373 10.848-24.63375 24.11163-24.57213z" fill="#deae7e"/><path d="m96 184h160v160h-160z" fill="#8760e6"/><path d="m336 400v-176l80.00058-.00031a15.9997 15.9997 0 0 1 15.9997-15.99969 15.99969 15.99969 0 0 1 15.99972 16.00028l.00058 16a15.9997 15.9997 0 0 1 15.9997-16.00028 15.9997 15.9997 0 0 1 15.99972 15.99969v80.90414a88 88 0 0 1 -39.18638 73.22043l-8.81362 5.87574z" fill="#f5c99d"/><path d="m336 400h96v88h-96z" fill="#548aff"/><path d="m463.88837 216.00026a23.8627 23.8627 0 0 0 -8.72773 1.694 24.07078 24.07078 0 0 0 -9.43619-13.39968 23.28763 23.28763 0 0 0 -9.48159-3.92851 24.03507 24.03507 0 0 0 -28.24237 23.63349v48.00044h16v-47.6875a8.204 8.204 0 0 1 8.03205-8.31244 7.95936 7.95936 0 0 1 5.99122 2.73428 8.36941 8.36941 0 0 1 1.9763 5.54182l.00239 71.72189 16-.001-.00195-55.71452a8.18884 8.18884 0 0 1 7.45226-8.26417 8.0079 8.0079 0 0 1 8.54724 7.98115v80.9043a79.839 79.839 0 0 1 -35.62451 66.564l-2.157 1.43811a8 8 0 0 0 -2.2184 11.0942 8 8 0 0 0 11.09409 2.21823l2.15683-1.43805a95.807 95.807 0 0 0 42.74899-79.87649v-80.33142c0-13.26373-10.848-24.63375-24.11163-24.57213z" fill="#deae7e"/><path d="m416 312v-128h-160v64h-22.116a24 24 0 1 0 0 32h22.116v64h128a32 32 0 0 0 32-32z" fill="#f6bb00"/><path d="m80 400h96v88h-96z" fill="#548aff"/><path d="m248 24h136a32 32 0 0 1 32 32v128h-64v22.116a24 24 0 1 1 -32 0v-22.116h-72z" fill="#548aff"/><path d="m256 88h22.116a24.00066 24.00066 0 1 1 0 32h-22.116v64h-160v-64h22.116a24 24 0 1 0 0-32h-22.116v-32a32 32 0 0 1 32-32h128z" fill="#ef5e3b"/><path d="m392 376v-11.14941a53.90209 53.90209 0 0 1 24.00655-44.8519l-.00655-31.99608a16 16 0 0 1 16-16.00261 16 16 0 0 1 16 15.99736v88.00264z" fill="#f5c99d"/><path d="m392 376a8 8 0 0 1 -8-8v-3.14942a61.76471 61.76471 0 0 1 24.00537-48.94825l-.0053-27.39724a24.64888 24.64888 0 0 1 6.42963-16.85443 24.00032 24.00032 0 0 1 41.5703 16.34543v32.00391a8 8 0 0 1 -8 8 8 8 0 0 1 -8-8v-32.00244a8.00037 8.00037 0 0 0 -14.00876-5.27973 8.37375 8.37375 0 0 0 -1.99124 5.56395l.00632 31.71529a7.95416 7.95416 0 0 1 -3.524 6.63224 45.81092 45.81092 0 0 0 -20.48232 38.22128v3.14941a8 8 0 0 1 -8 8z" fill="#deae7e"/><path d="m120 376v-11.14941a53.90211 53.90211 0 0 0 -24.00654-44.8519l.00654-31.99608a16 16 0 0 0 -16-16.00261 16 16 0 0 0 -16 15.99736v88.00264z" fill="#f5c99d"/><g fill="#deae7e"><path d="m120 376a8 8 0 0 0 8-8v-3.14942a61.76471 61.76471 0 0 0 -24.00537-48.94825l.00531-27.39724a24.64893 24.64893 0 0 0 -6.42964-16.85443 24.00031 24.00031 0 0 0 -41.5703 16.34543v32.00391a8 8 0 0 0 8 8 8 8 0 0 0 8-8v-32.00244a8.00037 8.00037 0 0 1 14.00875-5.27973 8.3737 8.3737 0 0 1 1.99125 5.56395l-.00632 31.71529a7.95417 7.95417 0 0 0 3.524 6.63224 45.81094 45.81094 0 0 1 20.48232 38.22128v3.14941a8 8 0 0 0 8 8z"/><path d="m168 344h16a0 0 0 0 1 0 0v48a8 8 0 0 1 -8 8 8 8 0 0 1 -8-8v-48a0 0 0 0 1 0 0z"/><path d="m328 344h16a0 0 0 0 1 0 0v48a8 8 0 0 1 -8 8 8 8 0 0 1 -8-8v-48a0 0 0 0 1 0 0z"/></g></svg>