<svg height="512pt" viewBox="0 0 512 512" width="512pt" xmlns="http://www.w3.org/2000/svg"><path d="m14.144531 497.777344c-.027343-.027344-.054687-.050782-.082031-.078125-9.070312-9.109375-14.0625-21.195313-14.0625-34.054688 0-12.890625 5.023438-25.011719 14.140625-34.128906l161.480469-161.457031c3.175781-3.175782 7.605468-4.757813 12.070312-4.320313 4.46875.4375 8.507813 2.855469 11.003906 6.589844 5.632813 8.421875 12.132813 16.335937 19.320313 23.523437 7.214844 7.210938 15.15625 13.730469 23.605469 19.371094 3.738281 2.496094 6.160156 6.535156 6.601562 11.003906.4375 4.46875-1.148437 8.902344-4.324218 12.082032l-161.492188 161.46875c-9.410156 9.410156-21.773438 14.113281-34.132812 14.113281-12.359376 0-24.71875-4.703125-34.128907-14.113281zm0 0" fill="#c4c0ad"/><path d="m218.046875 293.878906c7.207031 7.203125 15.136719 13.710938 23.578125 19.34375 3.734375 2.496094 6.15625 6.535156 6.597656 11.003906s-1.144531 8.902344-4.320312 12.082032l-161.496094 161.46875c-9.410156 9.410156-21.773438 14.113281-34.132812 14.113281-12.359376 0-24.71875-4.703125-34.128907-14.113281zm0 0" fill="#a19d8d"/><path d="m14.0625 497.699219c-9.070312-9.109375-14.0625-21.195313-14.0625-34.054688 0-12.890625 5.023438-25.011719 14.140625-34.128906l98.230469-98.214844 68.265625 68.261719-98.230469 98.214844c-9.410156 9.410156-21.769531 14.113281-34.132812 14.113281-12.359376 0-24.71875-4.703125-34.128907-14.113281-.027343-.027344-.054687-.050782-.082031-.078125zm0 0" fill="#ffcf2c"/><path d="m146.5 365.425781 34.136719 34.136719-98.230469 98.214844c-9.410156 9.410156-21.769531 14.113281-34.132812 14.113281-12.359376 0-24.71875-4.703125-34.128907-14.113281zm0 0" fill="#ffa81c"/><path d="m196.804688 315.066406c-34.875-34.871094-54.078126-81.230468-54.078126-130.542968 0-49.308594 19.207032-95.671876 54.078126-130.539063 71.988281-71.980469 189.125-71.980469 261.117187 0 34.871094 34.867187 54.078125 81.230469 54.078125 130.539063 0 49.3125-19.207031 95.671874-54.078125 130.542968-35.996094 35.988282-83.277344 53.984375-130.558594 53.984375s-94.5625-17.996093-130.558593-53.984375zm0 0" fill="#d6d3c5"/><path d="m457.929688 53.996094c34.867187 34.867187 54.070312 81.222656 54.070312 130.527344 0 49.3125-19.207031 95.671874-54.078125 130.542968-35.996094 35.988282-83.277344 53.984375-130.558594 53.984375-47.269531 0-94.539062-17.988281-130.53125-53.957031zm0 0" fill="#c4c0ad"/><path d="m239.230469 272.644531c-23.539063-23.535156-36.503907-54.832031-36.503907-88.121093 0-33.285157 12.964844-64.582032 36.503907-88.121094 23.542969-23.535156 54.84375-36.5 88.132812-36.5 33.289063 0 64.589844 12.964844 88.128907 36.5 23.542968 23.539062 36.507812 54.835937 36.507812 88.121094 0 33.289062-12.964844 64.585937-36.507812 88.121093-23.539063 23.539063-54.839844 36.5-88.128907 36.5-33.292969 0-64.589843-12.960937-88.132812-36.5zm0 0" fill="#e8ffff"/><path d="m415.507812 96.417969c23.53125 23.539062 36.492188 54.828125 36.492188 88.105469 0 33.289062-12.964844 64.585937-36.507812 88.121093-23.539063 23.539063-54.839844 36.5-88.128907 36.5-33.28125 0-64.570312-12.953125-88.109375-36.476562zm0 0" fill="#a3efff"/><path d="m287.363281 169.523438h25v-24.992188c0-8.285156 6.714844-15 15-15 8.28125 0 15 6.714844 15 15v24.992188h25c8.28125 0 15 6.71875 15 15 0 8.285156-6.71875 15-15 15h-25v24.996093c0 8.285157-6.71875 15-15 15-8.285156 0-15-6.714843-15-15v-24.996093h-25c-8.285156 0-15-6.714844-15-15 0-8.28125 6.714844-15 15-15zm0 0" fill="#878477"/><path d="m327.363281 239.519531c-8.285156 0-15-6.714843-15-15v-24.957031l30.035157-30.039062h24.964843c8.28125 0 15 6.71875 15 15 0 8.285156-6.71875 15-15 15h-25v24.996093c0 8.285157-6.714843 15-15 15zm0 0" fill="#696453"/></svg>