<?xml version="1.0" encoding="UTF-8"?>
<svg viewBox="0 0 744.09 524.41" xmlns="http://www.w3.org/2000/svg">
 <defs>
  <filter id="a">
   <feGaussianBlur stdDeviation="81.084917"/>
  </filter>
 </defs>
 <g transform="rotate(11.721 375.49 258.89)">
  <g stroke-width=".1">
   <rect transform="matrix(.11047 -.023735 .022163 .10315 300.37 92.346)" x="-2512.5" y="56.332" width="5602.9" height="3419.3" fill="#c8c4b7" filter="url(#a)"/>
   <rect transform="matrix(.11047 -.023735 .022163 .10315 308.47 74.821)" x="-2512.5" y="56.332" width="5602.9" height="3419.3" fill="#ffe680"/>
  </g>
  <g transform="matrix(.34629 0 0 .34629 227.1 -36.051)">
   <g stroke-width=".08">
    <path d="m474.75 444.37a155.35 146.48 0 1 1 -310.7 56.781 155.35 146.48 0 1 1 310.7 -56.781z" fill="#ecca3e"/>
    <path d="m500.79 413.4a155.35 146.48 0 1 1 -310.7 56.781 155.35 146.48 0 1 1 310.7 -56.781z" fill="#d40000"/>
   </g>
   <g stroke-width=".1">
    <path d="m509.34 405.88l-152.09 27.812-31.844 143.88c17.672 2.6926 36.123 2.7338 54.844-0.6875 84.379-15.421 141.36-91.532 129.09-171z" fill="#e00"/>
    <path d="m358.56 281.16c-10.466-0.10471-21.125 0.79105-31.844 2.75-85.752 15.672-143.34 94.018-128.56 174.88 11.551 63.206 63.973 109.14 127.25 118.78l31.844-143.88 152.09-27.812c-0.19971-1.2933-0.26334-2.5801-0.5-3.875-12.93-70.75-77.016-120.11-150.28-120.84z" fill="#f00"/>
    <path d="m294.21 361.94l-11.417 8.4406-21.06 15.749c-8.5971 18.275-7.3982 37.665-2.0165 58.264 13.962 53.441 53.709 79.564 109.79 73.192 28.709-3.2617 55.008-12.916 71.137-33.43l29.248-36.677-175.68-85.539z" fill="#a00"/>
   </g>
   <g stroke-width=".103">
    <path d="m507.85 349a121.42 114.49 0 1 1 -242.85 44.382 121.42 114.49 0 1 1 242.85 -44.382z" fill="#d40000"/>
    <path d="m516.56 341.04a121.42 114.49 0 1 1 -242.85 44.382 121.42 114.49 0 1 1 242.85 -44.382z" fill="#f00"/>
   </g>
  </g>
 </g>
</svg>
